<svg id="visual" viewBox="0 0 960 540" width="960" height="540" xmlns="http://www.w3.org/2000/svg" xmlns:xlink="http://www.w3.org/1999/xlink" version="1.1"><rect x="0" y="0" width="960" height="540" fill="#242424"></rect><path d="M124 0L121.3 22.5C118.7 45 113.3 90 122 135C130.7 180 153.3 225 165.5 270C177.7 315 179.3 360 175.7 405C172 450 163 495 158.5 517.5L154 540L0 540L0 517.5C0 495 0 450 0 405C0 360 0 315 0 270C0 225 0 180 0 135C0 90 0 45 0 22.5L0 0Z" fill="#263d73" stroke-linecap="round" stroke-linejoin="miter"></path></svg>