<svg id="visual" viewBox="0 0 900 600" width="900" height="600" xmlns="http://www.w3.org/2000/svg" xmlns:xlink="http://www.w3.org/1999/xlink" version="1.1"><rect x="0" y="0" width="900" height="600" fill="#242424"></rect><path d="M730 600L703.3 585.7C676.7 571.3 623.3 542.7 601.8 514.2C580.3 485.7 590.7 457.3 604.3 428.8C618 400.3 635 371.7 638.3 343C641.7 314.3 631.3 285.7 628.7 257C626 228.3 631 199.7 649.8 171.2C668.7 142.7 701.3 114.3 699 85.8C696.7 57.3 659.3 28.7 640.7 14.3L622 0L900 0L900 14.3C900 28.7 900 57.3 900 85.8C900 114.3 900 142.7 900 171.2C900 199.7 900 228.3 900 257C900 285.7 900 314.3 900 343C900 371.7 900 400.3 900 428.8C900 457.3 900 485.7 900 514.2C900 542.7 900 571.3 900 585.7L900 600Z" fill="#FFFFFF" stroke-linecap="round" stroke-linejoin="miter"></path></svg>